<?xml version="1.0" encoding="UTF-8" standalone="no"?>
<!DOCTYPE svg PUBLIC "-//W3C//DTD SVG 1.1//EN"
 "http://www.w3.org/Graphics/SVG/1.1/DTD/svg11.dtd">
<!-- Generated by graphviz version 2.40.1 (20161225.0304)
 -->
<!-- Title: dag Pages: 1 -->
<svg width="1701pt" height="895pt"
 viewBox="0.00 0.00 1701.49 894.60" xmlns="http://www.w3.org/2000/svg" xmlns:xlink="http://www.w3.org/1999/xlink">
<g id="graph0" class="graph" transform="scale(1 1) rotate(0) translate(10.8 883.8)">
<title>dag</title>
<polygon fill="#ffffff" stroke="transparent" points="-10.8,10.8 -10.8,-883.8 1690.69,-883.8 1690.69,10.8 -10.8,10.8"/>
<g id="clust1" class="cluster">
<title>cluster_years</title>
<path fill="#ffffff" stroke="#b3b3b3" stroke-dasharray="5,2" d="M247.245,-396C247.245,-396 404.828,-396 404.828,-396 410.828,-396 416.828,-402 416.828,-408 416.828,-408 416.828,-522 416.828,-522 416.828,-528 410.828,-534 404.828,-534 404.828,-534 247.245,-534 247.245,-534 241.245,-534 235.245,-528 235.245,-522 235.245,-522 235.245,-408 235.245,-408 235.245,-402 241.245,-396 247.245,-396"/>
<text text-anchor="middle" x="326.0365" y="-517.4" font-family="Times,serif" font-size="14.00" fill="#000000">Two independent realizations</text>
</g>
<g id="clust2" class="cluster">
<title>cluster_drivers</title>
<path fill="#ffffff" stroke="#b3b3b3" stroke-dasharray="5,2" d="M451.828,-605C451.828,-605 676.745,-605 676.745,-605 682.745,-605 688.745,-611 688.745,-617 688.745,-617 688.745,-731 688.745,-731 688.745,-737 682.745,-743 676.745,-743 676.745,-743 451.828,-743 451.828,-743 445.828,-743 439.828,-737 439.828,-731 439.828,-731 439.828,-617 439.828,-617 439.828,-611 445.828,-605 451.828,-605"/>
<text text-anchor="middle" x="564.2865" y="-726.4" font-family="Times,serif" font-size="14.00" fill="#000000">Ecological drivers &amp; sampling conditions</text>
</g>
<g id="clust3" class="cluster">
<title>cluster_latent</title>
<path fill="#ffffff" stroke="#b3b3b3" stroke-dasharray="5,2" d="M733.3645,-605C733.3645,-605 907.2715,-605 907.2715,-605 913.2715,-605 919.2715,-611 919.2715,-617 919.2715,-617 919.2715,-853 919.2715,-853 919.2715,-859 913.2715,-865 907.2715,-865 907.2715,-865 733.3645,-865 733.3645,-865 727.3645,-865 721.3645,-859 721.3645,-853 721.3645,-853 721.3645,-617 721.3645,-617 721.3645,-611 727.3645,-605 733.3645,-605"/>
<text text-anchor="middle" x="820.318" y="-848.4" font-family="Times,serif" font-size="14.00" fill="#000000">Latent compartments (true state)</text>
</g>
<g id="clust4" class="cluster">
<title>cluster_obsfilter</title>
<path fill="#ffffff" stroke="#b3b3b3" stroke-dasharray="5,2" d="M723.745,-8C723.745,-8 916.891,-8 916.891,-8 922.891,-8 928.891,-14 928.891,-20 928.891,-20 928.891,-134 928.891,-134 928.891,-140 922.891,-146 916.891,-146 916.891,-146 723.745,-146 723.745,-146 717.745,-146 711.745,-140 711.745,-134 711.745,-134 711.745,-20 711.745,-20 711.745,-14 717.745,-8 723.745,-8"/>
<text text-anchor="middle" x="820.318" y="-129.4" font-family="Times,serif" font-size="14.00" fill="#000000">Observation filter (method&#45;specific)</text>
</g>
<g id="clust5" class="cluster">
<title>cluster_obs</title>
<path fill="#ffffff" stroke="#b3b3b3" stroke-dasharray="5,2" d="M963.891,-111C963.891,-111 1164.083,-111 1164.083,-111 1170.083,-111 1176.083,-117 1176.083,-123 1176.083,-123 1176.083,-481 1176.083,-481 1176.083,-487 1170.083,-493 1164.083,-493 1164.083,-493 963.891,-493 963.891,-493 957.891,-493 951.891,-487 951.891,-481 951.891,-481 951.891,-123 951.891,-123 951.891,-117 957.891,-111 963.891,-111"/>
<text text-anchor="middle" x="1063.987" y="-476.4" font-family="Times,serif" font-size="14.00" fill="#000000">Observed data (Y): protocol modules</text>
</g>
<g id="clust6" class="cluster">
<title>cluster_out</title>
<path fill="#ffffff" stroke="#b3b3b3" stroke-dasharray="5,2" d="M1212.083,-310C1212.083,-310 1659.89,-310 1659.89,-310 1665.89,-310 1671.89,-316 1671.89,-322 1671.89,-322 1671.89,-436 1671.89,-436 1671.89,-442 1665.89,-448 1659.89,-448 1659.89,-448 1212.083,-448 1212.083,-448 1206.083,-448 1200.083,-442 1200.083,-436 1200.083,-436 1200.083,-322 1200.083,-322 1200.083,-316 1206.083,-310 1212.083,-310"/>
<text text-anchor="middle" x="1435.9865" y="-431.4" font-family="Times,serif" font-size="14.00" fill="#000000">Inference products</text>
</g>
<!-- DESIGN -->
<g id="node1" class="node">
<title>DESIGN</title>
<path fill="#ffffff" stroke="#404040" d="M191.3676,-470C191.3676,-470 11.8774,-470 11.8774,-470 5.8774,-470 -.1226,-464 -.1226,-458 -.1226,-458 -.1226,-446 -.1226,-446 -.1226,-440 5.8774,-434 11.8774,-434 11.8774,-434 191.3676,-434 191.3676,-434 197.3676,-434 203.3676,-440 203.3676,-446 203.3676,-446 203.3676,-458 203.3676,-458 203.3676,-464 197.3676,-470 191.3676,-470"/>
<text text-anchor="middle" x="101.6225" y="-455" font-family="Helvetica,sans-Serif" font-size="10.00" fill="#000000">Site&#45;selection design</text>
<text text-anchor="middle" x="101.6225" y="-443" font-family="Helvetica,sans-Serif" font-size="10.00" fill="#000000">(RMQS grid, land&#45;use representativeness)</text>
</g>
<!-- Y2024 -->
<g id="node2" class="node">
<title>Y2024</title>
<path fill="#ffffff" stroke="#404040" d="M382.7129,-501C382.7129,-501 269.3601,-501 269.3601,-501 263.3601,-501 257.3601,-495 257.3601,-489 257.3601,-489 257.3601,-477 257.3601,-477 257.3601,-471 263.3601,-465 269.3601,-465 269.3601,-465 382.7129,-465 382.7129,-465 388.7129,-465 394.7129,-471 394.7129,-477 394.7129,-477 394.7129,-489 394.7129,-489 394.7129,-495 388.7129,-501 382.7129,-501"/>
<text text-anchor="middle" x="326.0365" y="-486" font-family="Helvetica,sans-Serif" font-size="10.00" fill="#000000">2024 realization</text>
<text text-anchor="middle" x="326.0365" y="-474" font-family="Helvetica,sans-Serif" font-size="10.00" fill="#000000">(core protocols, fewer reps)</text>
</g>
<!-- DESIGN&#45;&gt;Y2024 -->
<g id="edge1" class="edge">
<title>DESIGN&#45;&gt;Y2024</title>
<path fill="none" stroke="#595959" d="M203.3238,-466.0488C218.9708,-468.2102 234.8927,-470.4096 249.8581,-472.4769"/>
<polygon fill="#595959" stroke="#595959" points="249.853,-474.9494 257.1224,-473.4804 250.5236,-470.0955 249.853,-474.9494"/>
</g>
<!-- Y2025 -->
<g id="node3" class="node">
<title>Y2025</title>
<path fill="#ffffff" stroke="#404040" d="M389.6201,-440C389.6201,-440 262.4529,-440 262.4529,-440 256.4529,-440 250.4529,-434 250.4529,-428 250.4529,-428 250.4529,-416 250.4529,-416 250.4529,-410 256.4529,-404 262.4529,-404 262.4529,-404 389.6201,-404 389.6201,-404 395.6201,-404 401.6201,-410 401.6201,-416 401.6201,-416 401.6201,-428 401.6201,-428 401.6201,-434 395.6201,-440 389.6201,-440"/>
<text text-anchor="middle" x="326.0365" y="-425" font-family="Helvetica,sans-Serif" font-size="10.00" fill="#000000">2025 realization</text>
<text text-anchor="middle" x="326.0365" y="-413" font-family="Helvetica,sans-Serif" font-size="10.00" fill="#000000">(extended / modular protocols)</text>
</g>
<!-- DESIGN&#45;&gt;Y2025 -->
<g id="edge2" class="edge">
<title>DESIGN&#45;&gt;Y2025</title>
<path fill="none" stroke="#595959" d="M203.3238,-438.4044C216.6315,-436.6254 230.138,-434.8199 243.0857,-433.089"/>
<polygon fill="#595959" stroke="#595959" points="243.603,-435.4917 250.2166,-432.1357 242.9537,-430.6349 243.603,-435.4917"/>
</g>
<!-- ENV -->
<g id="node4" class="node">
<title>ENV</title>
<path fill="#ffffff" stroke="#404040" d="M636.7035,-649C636.7035,-649 490.8695,-649 490.8695,-649 484.8695,-649 478.8695,-643 478.8695,-637 478.8695,-637 478.8695,-625 478.8695,-625 478.8695,-619 484.8695,-613 490.8695,-613 490.8695,-613 636.7035,-613 636.7035,-613 642.7035,-613 648.7035,-619 648.7035,-625 648.7035,-625 648.7035,-637 648.7035,-637 648.7035,-643 642.7035,-649 636.7035,-649"/>
<text text-anchor="middle" x="563.7865" y="-634" font-family="Helvetica,sans-Serif" font-size="10.00" fill="#000000">ENV</text>
<text text-anchor="middle" x="563.7865" y="-622" font-family="Helvetica,sans-Serif" font-size="10.00" fill="#000000">(land use, soil, climate, vegetation)</text>
</g>
<!-- Y2024&#45;&gt;ENV -->
<g id="edge3" class="edge">
<title>Y2024&#45;&gt;ENV</title>
<path fill="none" stroke="#595959" d="M339.8274,-501.1143C359.4417,-525.6565 397.7191,-569.2414 439.828,-594 450.936,-600.5311 463.2913,-605.9932 475.777,-610.5374"/>
<polygon fill="#595959" stroke="#595959" points="475.3034,-612.9674 482.7198,-612.9685 476.9229,-608.3427 475.3034,-612.9674"/>
</g>
<!-- MET -->
<g id="node5" class="node">
<title>MET</title>
<path fill="#ffffff" stroke="#404040" d="M616.6239,-710C616.6239,-710 510.9491,-710 510.9491,-710 504.9491,-710 498.9491,-704 498.9491,-698 498.9491,-698 498.9491,-686 498.9491,-686 498.9491,-680 504.9491,-674 510.9491,-674 510.9491,-674 616.6239,-674 616.6239,-674 622.6239,-674 628.6239,-680 628.6239,-686 628.6239,-686 628.6239,-698 628.6239,-698 628.6239,-704 622.6239,-710 616.6239,-710"/>
<text text-anchor="middle" x="563.7865" y="-695" font-family="Helvetica,sans-Serif" font-size="10.00" fill="#000000">Weather / phenology</text>
<text text-anchor="middle" x="563.7865" y="-683" font-family="Helvetica,sans-Serif" font-size="10.00" fill="#000000">(during sampling window)</text>
</g>
<!-- Y2024&#45;&gt;MET -->
<g id="edge5" class="edge">
<title>Y2024&#45;&gt;MET</title>
<path fill="none" stroke="#595959" d="M332.2884,-501.2483C345.7911,-537.8097 381.2774,-620.1124 439.828,-662 455.0103,-672.8615 473.637,-679.8228 491.7927,-684.2746"/>
<polygon fill="#595959" stroke="#595959" points="491.619,-686.748 498.9888,-685.9181 492.71,-681.971 491.619,-686.748"/>
</g>
<!-- HS -->
<g id="node12" class="node">
<title>HS</title>
<path fill="#ffffff" stroke="#404040" d="M1096.8337,-338C1096.8337,-338 1031.1403,-338 1031.1403,-338 1025.1403,-338 1019.1403,-332 1019.1403,-326 1019.1403,-326 1019.1403,-314 1019.1403,-314 1019.1403,-308 1025.1403,-302 1031.1403,-302 1031.1403,-302 1096.8337,-302 1096.8337,-302 1102.8337,-302 1108.8337,-308 1108.8337,-314 1108.8337,-314 1108.8337,-326 1108.8337,-326 1108.8337,-332 1102.8337,-338 1096.8337,-338"/>
<text text-anchor="middle" x="1063.987" y="-323" font-family="Helvetica,sans-Serif" font-size="10.00" fill="#000000">Hand&#45;sorting std</text>
<text text-anchor="middle" x="1063.987" y="-311" font-family="Helvetica,sans-Serif" font-size="10.00" fill="#000000">(soil block)</text>
</g>
<!-- Y2024&#45;&gt;HS -->
<g id="edge46" class="edge">
<title>Y2024&#45;&gt;HS</title>
<path fill="none" stroke="#8c8c8c" stroke-dasharray="1,5" d="M395.0751,-475.7286C508.8924,-462.3226 741.9275,-428.8596 928.891,-363 939.7659,-359.1692 941.1638,-355.2268 951.891,-351 971.1318,-343.4186 992.9197,-336.9415 1012.1368,-331.8986"/>
<polygon fill="#8c8c8c" stroke="#8c8c8c" points="1012.924,-334.2259 1019.0909,-330.1062 1011.7009,-329.4809 1012.924,-334.2259"/>
</g>
<!-- CORE -->
<g id="node14" class="node">
<title>CORE</title>
<path fill="#ffffff" stroke="#404040" d="M1112.1792,-460C1112.1792,-460 1015.7948,-460 1015.7948,-460 1009.7948,-460 1003.7948,-454 1003.7948,-448 1003.7948,-448 1003.7948,-436 1003.7948,-436 1003.7948,-430 1009.7948,-424 1015.7948,-424 1015.7948,-424 1112.1792,-424 1112.1792,-424 1118.1792,-424 1124.1792,-430 1124.1792,-436 1124.1792,-436 1124.1792,-448 1124.1792,-448 1124.1792,-454 1118.1792,-460 1112.1792,-460"/>
<text text-anchor="middle" x="1063.987" y="-439" font-family="Helvetica,sans-Serif" font-size="10.00" fill="#000000">Soil cores + Macfadyen</text>
</g>
<!-- Y2024&#45;&gt;CORE -->
<g id="edge47" class="edge">
<title>Y2024&#45;&gt;CORE</title>
<path fill="none" stroke="#8c8c8c" stroke-dasharray="1,5" d="M351.6823,-501.2022C373.8309,-515.7357 407.3089,-534.9518 439.828,-543 651.4886,-595.3842 910.4686,-505.6661 1015.9,-462.8302"/>
<polygon fill="#8c8c8c" stroke="#8c8c8c" points="1017.0708,-464.9983 1022.6204,-460.0784 1015.214,-460.4637 1017.0708,-464.9983"/>
</g>
<!-- PIT -->
<g id="node16" class="node">
<title>PIT</title>
<path fill="#ffffff" stroke="#404040" d="M1105.6071,-399C1105.6071,-399 1022.3669,-399 1022.3669,-399 1016.3669,-399 1010.3669,-393 1010.3669,-387 1010.3669,-387 1010.3669,-375 1010.3669,-375 1010.3669,-369 1016.3669,-363 1022.3669,-363 1022.3669,-363 1105.6071,-363 1105.6071,-363 1111.6071,-363 1117.6071,-369 1117.6071,-375 1117.6071,-375 1117.6071,-387 1117.6071,-387 1117.6071,-393 1111.6071,-399 1105.6071,-399"/>
<text text-anchor="middle" x="1063.987" y="-384" font-family="Helvetica,sans-Serif" font-size="10.00" fill="#000000">Pitfall traps</text>
<text text-anchor="middle" x="1063.987" y="-372" font-family="Helvetica,sans-Serif" font-size="10.00" fill="#000000">(Barber / GPD / etc.)</text>
</g>
<!-- Y2024&#45;&gt;PIT -->
<g id="edge48" class="edge">
<title>Y2024&#45;&gt;PIT</title>
<path fill="none" stroke="#8c8c8c" stroke-dasharray="1,5" d="M394.8841,-489.3242C409.6968,-490.4388 425.2737,-491.4253 439.828,-492 550.3716,-496.3647 578.7202,-503.5542 688.745,-492 797.2602,-480.6043 836.1434,-498.4743 928.891,-441 942.8743,-432.3348 938.1764,-421.0845 951.891,-412 967.1977,-401.8609 985.773,-395.0135 1003.3639,-390.3985"/>
<polygon fill="#8c8c8c" stroke="#8c8c8c" points="1004.1029,-392.7395 1010.3071,-388.6762 1002.9231,-387.9837 1004.1029,-392.7395"/>
</g>
<!-- Y2025&#45;&gt;ENV -->
<g id="edge4" class="edge">
<title>Y2025&#45;&gt;ENV</title>
<path fill="none" stroke="#595959" d="M393.0666,-440.095C401.4201,-443.7105 409.5664,-447.9804 416.828,-453 477.4382,-494.897 526.7922,-568.4303 549.7939,-606.5446"/>
<polygon fill="#595959" stroke="#595959" points="547.8291,-608.0333 553.5185,-612.7909 552.0377,-605.5238 547.8291,-608.0333"/>
</g>
<!-- Y2025&#45;&gt;MET -->
<g id="edge6" class="edge">
<title>Y2025&#45;&gt;MET</title>
<path fill="none" stroke="#595959" d="M401.9716,-439.8634C407.5798,-443.4707 412.6611,-447.8015 416.828,-453 475.2745,-525.9167 378.1051,-591.835 439.828,-662 453.1064,-677.0945 472.5585,-685.2556 492.135,-689.5027"/>
<polygon fill="#595959" stroke="#595959" points="491.7159,-691.917 499.0546,-690.8466 492.6502,-687.1069 491.7159,-691.917"/>
</g>
<!-- Y2025&#45;&gt;HS -->
<g id="edge49" class="edge">
<title>Y2025&#45;&gt;HS</title>
<path fill="none" stroke="#8c8c8c" stroke-dasharray="1,5" d="M399.8766,-403.9617C413.13,-401.0576 426.8524,-398.2661 439.828,-396 650.5904,-359.1917 904.4863,-334.1969 1011.9279,-324.5021"/>
<polygon fill="#8c8c8c" stroke="#8c8c8c" points="1012.3469,-326.9244 1019.0997,-323.8581 1011.9086,-322.044 1012.3469,-326.9244"/>
</g>
<!-- HQ -->
<g id="node13" class="node">
<title>HQ</title>
<path fill="#ffffff" stroke="#404040" d="M1099.391,-277C1099.391,-277 1028.583,-277 1028.583,-277 1022.583,-277 1016.583,-271 1016.583,-265 1016.583,-265 1016.583,-253 1016.583,-253 1016.583,-247 1022.583,-241 1028.583,-241 1028.583,-241 1099.391,-241 1099.391,-241 1105.391,-241 1111.391,-247 1111.391,-253 1111.391,-253 1111.391,-265 1111.391,-265 1111.391,-271 1105.391,-277 1099.391,-277"/>
<text text-anchor="middle" x="1063.987" y="-262" font-family="Helvetica,sans-Serif" font-size="10.00" fill="#000000">Hand&#45;sorting qual</text>
<text text-anchor="middle" x="1063.987" y="-250" font-family="Helvetica,sans-Serif" font-size="10.00" fill="#000000">(list completion)</text>
</g>
<!-- Y2025&#45;&gt;HQ -->
<g id="edge50" class="edge">
<title>Y2025&#45;&gt;HQ</title>
<path fill="none" stroke="#8c8c8c" stroke-dasharray="1,5" d="M349.4731,-403.9455C371.543,-387.912 406.1552,-365.188 439.828,-353 640.978,-280.1927 898.294,-263.7645 1009.1502,-260.0677"/>
<polygon fill="#8c8c8c" stroke="#8c8c8c" points="1009.3197,-262.5137 1016.2382,-259.8422 1009.1638,-257.6162 1009.3197,-262.5137"/>
</g>
<!-- Y2025&#45;&gt;CORE -->
<g id="edge51" class="edge">
<title>Y2025&#45;&gt;CORE</title>
<path fill="none" stroke="#8c8c8c" stroke-dasharray="1,5" d="M401.8861,-424.0557C546.3288,-427.9704 858.7302,-436.4371 996.4468,-440.1695"/>
<polygon fill="#8c8c8c" stroke="#8c8c8c" points="996.6056,-442.6246 1003.6694,-440.3653 996.7384,-437.7264 996.6056,-442.6246"/>
</g>
<!-- LIT -->
<g id="node15" class="node">
<title>LIT</title>
<path fill="#ffffff" stroke="#404040" d="M1101.0121,-155C1101.0121,-155 1026.9619,-155 1026.9619,-155 1020.9619,-155 1014.9619,-149 1014.9619,-143 1014.9619,-143 1014.9619,-131 1014.9619,-131 1014.9619,-125 1020.9619,-119 1026.9619,-119 1026.9619,-119 1101.0121,-119 1101.0121,-119 1107.0121,-119 1113.0121,-125 1113.0121,-131 1113.0121,-131 1113.0121,-143 1113.0121,-143 1113.0121,-149 1107.0121,-155 1101.0121,-155"/>
<text text-anchor="middle" x="1063.987" y="-134" font-family="Helvetica,sans-Serif" font-size="10.00" fill="#000000">Litter + Macfadyen</text>
</g>
<!-- Y2025&#45;&gt;LIT -->
<g id="edge52" class="edge">
<title>Y2025&#45;&gt;LIT</title>
<path fill="none" stroke="#8c8c8c" stroke-dasharray="1,5" d="M329.3112,-403.7667C338.2073,-360.1146 367.2092,-249.5605 439.828,-200 442.7578,-198.0005 854.7097,-157.4905 1007.67,-142.508"/>
<polygon fill="#8c8c8c" stroke="#8c8c8c" points="1008.0275,-144.9348 1014.7554,-141.8141 1007.5499,-140.0581 1008.0275,-144.9348"/>
</g>
<!-- Y2025&#45;&gt;PIT -->
<g id="edge53" class="edge">
<title>Y2025&#45;&gt;PIT</title>
<path fill="none" stroke="#8c8c8c" stroke-dasharray="1,5" d="M401.8861,-417.7858C548.7678,-409.6252 869.3283,-391.8151 1003.272,-384.3733"/>
<polygon fill="#8c8c8c" stroke="#8c8c8c" points="1003.4273,-386.8185 1010.2805,-383.9839 1003.1554,-381.9261 1003.4273,-386.8185"/>
</g>
<!-- DVAC -->
<g id="node17" class="node">
<title>DVAC</title>
<path fill="#ffffff" stroke="#404040" d="M1108.7283,-216C1108.7283,-216 1019.2457,-216 1019.2457,-216 1013.2457,-216 1007.2457,-210 1007.2457,-204 1007.2457,-204 1007.2457,-192 1007.2457,-192 1007.2457,-186 1013.2457,-180 1019.2457,-180 1019.2457,-180 1108.7283,-180 1108.7283,-180 1114.7283,-180 1120.7283,-186 1120.7283,-192 1120.7283,-192 1120.7283,-204 1120.7283,-204 1120.7283,-210 1114.7283,-216 1108.7283,-216"/>
<text text-anchor="middle" x="1063.987" y="-195" font-family="Helvetica,sans-Serif" font-size="10.00" fill="#000000">DVAC (open habitats)</text>
</g>
<!-- Y2025&#45;&gt;DVAC -->
<g id="edge54" class="edge">
<title>Y2025&#45;&gt;DVAC</title>
<path fill="none" stroke="#8c8c8c" stroke-dasharray="1,5" d="M335.4121,-403.7788C351.982,-373.6379 389.5025,-313.9567 439.828,-286 623.0135,-184.2371 881.379,-185.4759 999.9577,-192.5621"/>
<polygon fill="#8c8c8c" stroke="#8c8c8c" points="1000.0813,-195.0244 1007.22,-193.0139 1000.3857,-190.1339 1000.0813,-195.0244"/>
</g>
<!-- LSOIL -->
<g id="node6" class="node">
<title>LSOIL</title>
<path fill="#ffffff" stroke="#404040" d="M850.0963,-771C850.0963,-771 790.5397,-771 790.5397,-771 784.5397,-771 778.5397,-765 778.5397,-759 778.5397,-759 778.5397,-747 778.5397,-747 778.5397,-741 784.5397,-735 790.5397,-735 790.5397,-735 850.0963,-735 850.0963,-735 856.0963,-735 862.0963,-741 862.0963,-747 862.0963,-747 862.0963,-759 862.0963,-759 862.0963,-765 856.0963,-771 850.0963,-771"/>
<text text-anchor="middle" x="820.318" y="-756" font-family="Helvetica,sans-Serif" font-size="10.00" fill="#000000">Soil community</text>
<text text-anchor="middle" x="820.318" y="-744" font-family="Helvetica,sans-Serif" font-size="10.00" fill="#000000">(latent)</text>
</g>
<!-- ENV&#45;&gt;LSOIL -->
<g id="edge7" class="edge">
<title>ENV&#45;&gt;LSOIL</title>
<path fill="none" stroke="#595959" d="M648.9232,-640.3661C663.452,-645.0825 677.4691,-651.9758 688.745,-662 710.3995,-681.2507 690.3466,-703.465 711.745,-723 727.8942,-737.7429 750.6494,-745.3303 771.159,-749.2003"/>
<polygon fill="#595959" stroke="#595959" points="770.993,-751.6573 778.3054,-750.4198 771.8173,-746.8271 770.993,-751.6573"/>
</g>
<!-- LLIT -->
<g id="node7" class="node">
<title>LLIT</title>
<path fill="#ffffff" stroke="#404040" d="M853.1546,-649C853.1546,-649 787.4814,-649 787.4814,-649 781.4814,-649 775.4814,-643 775.4814,-637 775.4814,-637 775.4814,-625 775.4814,-625 775.4814,-619 781.4814,-613 787.4814,-613 787.4814,-613 853.1546,-613 853.1546,-613 859.1546,-613 865.1546,-619 865.1546,-625 865.1546,-625 865.1546,-637 865.1546,-637 865.1546,-643 859.1546,-649 853.1546,-649"/>
<text text-anchor="middle" x="820.318" y="-634" font-family="Helvetica,sans-Serif" font-size="10.00" fill="#000000">Litter community</text>
<text text-anchor="middle" x="820.318" y="-622" font-family="Helvetica,sans-Serif" font-size="10.00" fill="#000000">(latent)</text>
</g>
<!-- ENV&#45;&gt;LLIT -->
<g id="edge8" class="edge">
<title>ENV&#45;&gt;LLIT</title>
<path fill="none" stroke="#595959" d="M648.8515,-631C688.3385,-631 734.0105,-631 768.2848,-631"/>
<polygon fill="#595959" stroke="#595959" points="768.4193,-633.4501 775.4193,-631 768.4192,-628.5501 768.4193,-633.4501"/>
</g>
<!-- LSURF -->
<g id="node8" class="node">
<title>LSURF</title>
<path fill="#ffffff" stroke="#404040" d="M873.829,-832C873.829,-832 766.807,-832 766.807,-832 760.807,-832 754.807,-826 754.807,-820 754.807,-820 754.807,-808 754.807,-808 754.807,-802 760.807,-796 766.807,-796 766.807,-796 873.829,-796 873.829,-796 879.829,-796 885.829,-802 885.829,-808 885.829,-808 885.829,-820 885.829,-820 885.829,-826 879.829,-832 873.829,-832"/>
<text text-anchor="middle" x="820.318" y="-817" font-family="Helvetica,sans-Serif" font-size="10.00" fill="#000000">Surface&#45;active community</text>
<text text-anchor="middle" x="820.318" y="-805" font-family="Helvetica,sans-Serif" font-size="10.00" fill="#000000">(latent)</text>
</g>
<!-- ENV&#45;&gt;LSURF -->
<g id="edge9" class="edge">
<title>ENV&#45;&gt;LSURF</title>
<path fill="none" stroke="#595959" d="M648.8094,-638.3022C663.7886,-643.1551 678.0003,-650.6265 688.745,-662 726.6369,-702.1092 674.386,-743.394 711.745,-784 721.4169,-794.5125 734.4091,-801.4683 748.0393,-806.0412"/>
<polygon fill="#595959" stroke="#595959" points="747.3595,-808.3953 754.77,-808.0999 748.7927,-803.7096 747.3595,-808.3953"/>
</g>
<!-- LVEG -->
<g id="node9" class="node">
<title>LVEG</title>
<path fill="#ffffff" stroke="#404040" d="M878.225,-710C878.225,-710 762.411,-710 762.411,-710 756.411,-710 750.411,-704 750.411,-698 750.411,-698 750.411,-686 750.411,-686 750.411,-680 756.411,-674 762.411,-674 762.411,-674 878.225,-674 878.225,-674 884.225,-674 890.225,-680 890.225,-686 890.225,-686 890.225,-698 890.225,-698 890.225,-704 884.225,-710 878.225,-710"/>
<text text-anchor="middle" x="820.318" y="-695" font-family="Helvetica,sans-Serif" font-size="10.00" fill="#000000">Vegetation&#45;layer community</text>
<text text-anchor="middle" x="820.318" y="-683" font-family="Helvetica,sans-Serif" font-size="10.00" fill="#000000">(latent)</text>
</g>
<!-- ENV&#45;&gt;LVEG -->
<g id="edge10" class="edge">
<title>ENV&#45;&gt;LVEG</title>
<path fill="none" stroke="#595959" d="M639.7132,-649.0544C672.4033,-656.8277 710.5681,-665.9028 743.3708,-673.7029"/>
<polygon fill="#595959" stroke="#595959" points="742.9083,-676.1112 750.2852,-675.3471 744.0419,-671.3441 742.9083,-676.1112"/>
</g>
<!-- MET&#45;&gt;LSURF -->
<g id="edge11" class="edge">
<title>MET&#45;&gt;LSURF</title>
<path fill="none" stroke="#595959" d="M587.9701,-710.0932C616.3173,-730.5566 665.3381,-763.6678 711.745,-784 723.1555,-788.9993 735.6103,-793.3682 747.883,-797.1108"/>
<polygon fill="#595959" stroke="#595959" points="747.2669,-799.4835 754.6746,-799.1257 748.6606,-794.7859 747.2669,-799.4835"/>
</g>
<!-- MET&#45;&gt;LVEG -->
<g id="edge12" class="edge">
<title>MET&#45;&gt;LVEG</title>
<path fill="none" stroke="#595959" d="M628.5202,-692C663.3081,-692 706.4375,-692 742.9818,-692"/>
<polygon fill="#595959" stroke="#595959" points="743.1985,-694.4501 750.1984,-692 743.1984,-689.5501 743.1985,-694.4501"/>
</g>
<!-- LSOIL&#45;&gt;HS -->
<g id="edge13" class="edge">
<title>LSOIL&#45;&gt;HS</title>
<path fill="none" stroke="#595959" d="M862.2352,-752.6413C885.5546,-750.0569 912.9994,-742.5923 928.891,-723 981.0657,-658.6751 899.7233,-415.3307 951.891,-351 966.408,-333.0984 990.2653,-324.9977 1012.2474,-321.5168"/>
<polygon fill="#595959" stroke="#595959" points="1012.7052,-323.9269 1019.3043,-320.5424 1012.035,-319.073 1012.7052,-323.9269"/>
</g>
<!-- LSOIL&#45;&gt;HQ -->
<g id="edge18" class="edge">
<title>LSOIL&#45;&gt;HQ</title>
<path fill="none" stroke="#595959" d="M862.2981,-752.6921C885.6391,-750.1252 913.0846,-742.6611 928.891,-723 989.2656,-647.9017 891.5247,-365.1049 951.891,-290 965.6994,-272.8203 988.1134,-264.6552 1009.2833,-260.9405"/>
<polygon fill="#595959" stroke="#595959" points="1009.8551,-263.3315 1016.4008,-259.8448 1009.1095,-258.4885 1009.8551,-263.3315"/>
</g>
<!-- LSOIL&#45;&gt;CORE -->
<g id="edge14" class="edge">
<title>LSOIL&#45;&gt;CORE</title>
<path fill="none" stroke="#595959" d="M862.307,-749.6996C884.2289,-746.0742 910.2837,-738.5497 928.891,-723 1011.5734,-653.9044 1047.355,-522.36 1059.1814,-467.2637"/>
<polygon fill="#595959" stroke="#595959" points="1061.5992,-467.6705 1060.6316,-460.3175 1056.8027,-466.6691 1061.5992,-467.6705"/>
</g>
<!-- LLIT&#45;&gt;LIT -->
<g id="edge15" class="edge">
<title>LLIT&#45;&gt;LIT</title>
<path fill="none" stroke="#595959" d="M823.0578,-612.9159C835.1209,-535.5739 885.8483,-233.5774 951.891,-168 966.6944,-153.3009 987.8074,-145.4171 1007.7258,-141.2418"/>
<polygon fill="#595959" stroke="#595959" points="1008.2897,-143.6286 1014.7091,-139.9145 1007.3747,-138.8148 1008.2897,-143.6286"/>
</g>
<!-- LSURF&#45;&gt;PIT -->
<g id="edge16" class="edge">
<title>LSURF&#45;&gt;PIT</title>
<path fill="none" stroke="#595959" d="M886.0661,-809.2387C902.3844,-804.822 918.235,-797.1375 928.891,-784 981.0657,-719.6751 899.7233,-476.3307 951.891,-412 964.4638,-396.4959 984.0426,-388.3432 1003.3415,-384.1764"/>
<polygon fill="#595959" stroke="#595959" points="1004.0135,-386.5421 1010.4255,-382.8153 1003.0889,-381.7302 1004.0135,-386.5421"/>
</g>
<!-- LVEG&#45;&gt;DVAC -->
<g id="edge17" class="edge">
<title>LVEG&#45;&gt;DVAC</title>
<path fill="none" stroke="#595959" d="M890.3719,-686.0751C905.1661,-681.5067 919.2111,-674.0405 928.891,-662 989.2656,-586.9017 891.5247,-304.1049 951.891,-229 963.6725,-214.3421 981.7186,-206.2465 999.9116,-201.8784"/>
<polygon fill="#595959" stroke="#595959" points="1000.8177,-204.1901 1007.15,-200.3294 999.7923,-199.3986 1000.8177,-204.1901"/>
</g>
<!-- DET -->
<g id="node10" class="node">
<title>DET</title>
<path fill="#ffffff" stroke="#404040" d="M881.9641,-113C881.9641,-113 758.6719,-113 758.6719,-113 752.6719,-113 746.6719,-107 746.6719,-101 746.6719,-101 746.6719,-89 746.6719,-89 746.6719,-83 752.6719,-77 758.6719,-77 758.6719,-77 881.9641,-77 881.9641,-77 887.9641,-77 893.9641,-83 893.9641,-89 893.9641,-89 893.9641,-101 893.9641,-101 893.9641,-107 887.9641,-113 881.9641,-113"/>
<text text-anchor="middle" x="820.318" y="-98" font-family="Helvetica,sans-Serif" font-size="10.00" fill="#000000">Detectability components</text>
<text text-anchor="middle" x="820.318" y="-86" font-family="Helvetica,sans-Serif" font-size="10.00" fill="#000000">p_access × p_capture × p_ID</text>
</g>
<!-- DET&#45;&gt;HS -->
<g id="edge19" class="edge">
<title>DET&#45;&gt;HS</title>
<path fill="none" stroke="#595959" d="M827.3797,-113.2641C843.3485,-152.0792 886.0487,-243.0577 951.891,-290 969.4261,-302.5017 991.8622,-309.7936 1012.0489,-314.0469"/>
<polygon fill="#595959" stroke="#595959" points="1011.7428,-316.4835 1019.0837,-315.4281 1012.6869,-311.6753 1011.7428,-316.4835"/>
</g>
<!-- DET&#45;&gt;HQ -->
<g id="edge20" class="edge">
<title>DET&#45;&gt;HQ</title>
<path fill="none" stroke="#595959" d="M833.0429,-113.1919C854.2791,-142.1646 899.7891,-198.6112 951.891,-229 969.4048,-239.215 990.4726,-246.0349 1009.5933,-250.5504"/>
<polygon fill="#595959" stroke="#595959" points="1009.1726,-252.9669 1016.5395,-252.1117 1010.2473,-248.1862 1009.1726,-252.9669"/>
</g>
<!-- DET&#45;&gt;CORE -->
<g id="edge21" class="edge">
<title>DET&#45;&gt;CORE</title>
<path fill="none" stroke="#595959" d="M822.3188,-113.2615C829.2614,-167.5233 857.3211,-329.1497 951.891,-412 964.4872,-423.0352 980.7221,-430.0671 996.9045,-434.5319"/>
<polygon fill="#595959" stroke="#595959" points="996.4379,-436.9411 1003.8259,-436.2924 997.6459,-432.1923 996.4379,-436.9411"/>
</g>
<!-- DET&#45;&gt;LIT -->
<g id="edge22" class="edge">
<title>DET&#45;&gt;LIT</title>
<path fill="none" stroke="#595959" d="M894.088,-107.7154C930.5735,-114.0042 973.908,-121.4735 1007.6799,-127.2946"/>
<polygon fill="#595959" stroke="#595959" points="1007.4209,-129.736 1014.7354,-128.5107 1008.2533,-124.9072 1007.4209,-129.736"/>
</g>
<!-- DET&#45;&gt;PIT -->
<g id="edge23" class="edge">
<title>DET&#45;&gt;PIT</title>
<path fill="none" stroke="#595959" d="M824.2454,-113.0859C835.3966,-159.9884 871.7682,-286.3703 951.891,-351 966.4261,-362.7245 985.1321,-369.8916 1003.0827,-374.2645"/>
<polygon fill="#595959" stroke="#595959" points="1002.8125,-376.715 1010.1797,-375.8624 1003.8888,-371.9346 1002.8125,-376.715"/>
</g>
<!-- DET&#45;&gt;DVAC -->
<g id="edge24" class="edge">
<title>DET&#45;&gt;DVAC</title>
<path fill="none" stroke="#595959" d="M848.0675,-113.0387C874.0349,-129.2689 914.3497,-152.8303 951.891,-168 967.2542,-174.208 984.3167,-179.5237 1000.4006,-183.8796"/>
<polygon fill="#595959" stroke="#595959" points="999.832,-186.2634 1007.2259,-185.6874 1001.0866,-181.5267 999.832,-186.2634"/>
</g>
<!-- EFF -->
<g id="node11" class="node">
<title>EFF</title>
<path fill="#ffffff" stroke="#404040" d="M880.6714,-52C880.6714,-52 759.9646,-52 759.9646,-52 753.9646,-52 747.9646,-46 747.9646,-40 747.9646,-40 747.9646,-28 747.9646,-28 747.9646,-22 753.9646,-16 759.9646,-16 759.9646,-16 880.6714,-16 880.6714,-16 886.6714,-16 892.6714,-22 892.6714,-28 892.6714,-28 892.6714,-40 892.6714,-40 892.6714,-46 886.6714,-52 880.6714,-52"/>
<text text-anchor="middle" x="820.318" y="-37" font-family="Helvetica,sans-Serif" font-size="10.00" fill="#000000">Effort</text>
<text text-anchor="middle" x="820.318" y="-25" font-family="Helvetica,sans-Serif" font-size="10.00" fill="#000000">(reps, duration, volume/area)</text>
</g>
<!-- EFF&#45;&gt;HS -->
<g id="edge25" class="edge">
<title>EFF&#45;&gt;HS</title>
<path fill="none" stroke="#595959" d="M892.5163,-41.7694C906.3987,-46.4998 919.5133,-53.8046 928.891,-65 993.4384,-142.0592 886.7053,-213.4799 951.891,-290 966.6855,-307.3669 990.3262,-315.2395 1012.0917,-318.6191"/>
<polygon fill="#595959" stroke="#595959" points="1011.8135,-321.0537 1019.0789,-319.5648 1012.4708,-316.198 1011.8135,-321.0537"/>
</g>
<!-- EFF&#45;&gt;HQ -->
<g id="edge26" class="edge">
<title>EFF&#45;&gt;HQ</title>
<path fill="none" stroke="#595959" d="M892.7619,-42.2285C906.4574,-46.9465 919.4339,-54.1301 928.891,-65 977.2017,-120.528 903.1205,-173.8754 951.891,-229 966.3431,-245.335 988.6192,-253.2192 1009.5171,-256.8788"/>
<polygon fill="#595959" stroke="#595959" points="1009.246,-259.316 1016.5381,-257.9641 1009.9945,-254.4735 1009.246,-259.316"/>
</g>
<!-- EFF&#45;&gt;CORE -->
<g id="edge27" class="edge">
<title>EFF&#45;&gt;CORE</title>
<path fill="none" stroke="#595959" d="M892.5405,-41.4247C906.5089,-46.1663 919.653,-53.5628 928.891,-65 977.4501,-125.1188 902.834,-352.2869 951.891,-412 963.1244,-425.6735 979.8465,-433.4957 996.9681,-437.8721"/>
<polygon fill="#595959" stroke="#595959" points="996.425,-440.261 1003.7956,-439.4383 997.5207,-435.4851 996.425,-440.261"/>
</g>
<!-- EFF&#45;&gt;LIT -->
<g id="edge28" class="edge">
<title>EFF&#45;&gt;LIT</title>
<path fill="none" stroke="#595959" d="M891.7173,-52.0499C904.2622,-55.8804 917.0766,-60.2278 928.891,-65 963.9102,-79.1454 1001.6796,-99.7727 1028.3549,-115.3269"/>
<polygon fill="#595959" stroke="#595959" points="1027.2725,-117.5324 1034.5495,-118.9639 1029.7535,-113.3069 1027.2725,-117.5324"/>
</g>
<!-- EFF&#45;&gt;PIT -->
<g id="edge29" class="edge">
<title>EFF&#45;&gt;PIT</title>
<path fill="none" stroke="#595959" d="M892.6997,-41.6175C906.5711,-46.357 919.6349,-53.7038 928.891,-65 969.3028,-114.3186 911.0707,-302.019 951.891,-351 964.5841,-366.2307 984.0843,-374.1847 1003.2819,-378.2059"/>
<polygon fill="#595959" stroke="#595959" points="1002.998,-380.645 1010.3279,-379.5157 1003.8936,-375.8276 1002.998,-380.645"/>
</g>
<!-- EFF&#45;&gt;DVAC -->
<g id="edge30" class="edge">
<title>EFF&#45;&gt;DVAC</title>
<path fill="none" stroke="#595959" d="M892.6683,-43.0134C906.2032,-47.6923 919.1394,-54.6614 928.891,-65 961.0751,-99.1216 919.4244,-134.1471 951.891,-168 964.5707,-181.2212 982.3853,-188.8351 1000.0872,-193.157"/>
<polygon fill="#595959" stroke="#595959" points="999.7548,-195.5925 1007.1184,-194.7095 1000.8114,-190.8078 999.7548,-195.5925"/>
</g>
<!-- COV -->
<g id="node18" class="node">
<title>COV</title>
<path fill="#ffffff" stroke="#404040" d="M1325.625,-415C1325.625,-415 1219.902,-415 1219.902,-415 1213.902,-415 1207.902,-409 1207.902,-403 1207.902,-403 1207.902,-391 1207.902,-391 1207.902,-385 1213.902,-379 1219.902,-379 1219.902,-379 1325.625,-379 1325.625,-379 1331.625,-379 1337.625,-385 1337.625,-391 1337.625,-391 1337.625,-403 1337.625,-403 1337.625,-409 1331.625,-415 1325.625,-415"/>
<text text-anchor="middle" x="1272.7635" y="-394" font-family="Helvetica,sans-Serif" font-size="10.00" fill="#000000">Coverage / completeness</text>
</g>
<!-- HS&#45;&gt;COV -->
<g id="edge31" class="edge">
<title>HS&#45;&gt;COV</title>
<path fill="none" stroke="#595959" d="M1108.7439,-330.4692C1129.496,-335.8066 1154.3263,-342.8864 1176.083,-351 1194.8408,-357.9953 1214.9278,-367.2465 1231.9054,-375.6174"/>
<polygon fill="#595959" stroke="#595959" points="1231.1334,-377.9699 1238.4916,-378.8971 1233.3176,-373.5836 1231.1334,-377.9699"/>
</g>
<!-- BETA -->
<g id="node20" class="node">
<title>BETA</title>
<path fill="#ffffff" stroke="#404040" d="M1491.7623,-354C1491.7623,-354 1389.6707,-354 1389.6707,-354 1383.6707,-354 1377.6707,-348 1377.6707,-342 1377.6707,-342 1377.6707,-330 1377.6707,-330 1377.6707,-324 1383.6707,-318 1389.6707,-318 1389.6707,-318 1491.7623,-318 1491.7623,-318 1497.7623,-318 1503.7623,-324 1503.7623,-330 1503.7623,-330 1503.7623,-342 1503.7623,-342 1503.7623,-348 1497.7623,-354 1491.7623,-354"/>
<text text-anchor="middle" x="1440.7165" y="-339" font-family="Helvetica,sans-Serif" font-size="10.00" fill="#000000">Community structure</text>
<text text-anchor="middle" x="1440.7165" y="-327" font-family="Helvetica,sans-Serif" font-size="10.00" fill="#000000">(ordination / dissimilarity)</text>
</g>
<!-- HS&#45;&gt;BETA -->
<g id="edge38" class="edge">
<title>HS&#45;&gt;BETA</title>
<path fill="none" stroke="#595959" d="M1108.8857,-312.37C1130.0121,-307.696 1155.1109,-300.5365 1176.083,-290 1188.2397,-283.8924 1187.2338,-275.4705 1200.083,-271 1257.7422,-250.9393 1278.7871,-254.0771 1337.444,-271 1366.1593,-279.2846 1394.588,-298.1775 1414.3257,-313.4711"/>
<polygon fill="#595959" stroke="#595959" points="1412.897,-315.4646 1419.9087,-317.8812 1415.9343,-311.6195 1412.897,-315.4646"/>
</g>
<!-- HQ&#45;&gt;COV -->
<g id="edge36" class="edge">
<title>HQ&#45;&gt;COV</title>
<path fill="none" stroke="#595959" d="M1111.6664,-265.9956C1132.5501,-270.5733 1156.6662,-278.0175 1176.083,-290 1210.6516,-311.333 1240.2373,-348.6054 1257.2704,-373.0436"/>
<polygon fill="#595959" stroke="#595959" points="1255.3482,-374.5728 1261.3258,-378.9627 1259.3905,-371.8032 1255.3482,-374.5728"/>
</g>
<!-- CORE&#45;&gt;COV -->
<g id="edge32" class="edge">
<title>CORE&#45;&gt;COV</title>
<path fill="none" stroke="#595959" d="M1124.0937,-429.0445C1148.0977,-423.8706 1175.9364,-417.8703 1200.989,-412.4704"/>
<polygon fill="#595959" stroke="#595959" points="1201.6491,-414.8344 1207.9757,-410.9645 1200.6166,-410.0445 1201.6491,-414.8344"/>
</g>
<!-- CORE&#45;&gt;BETA -->
<g id="edge39" class="edge">
<title>CORE&#45;&gt;BETA</title>
<path fill="none" stroke="#595959" d="M1124.3158,-435.2426C1142.4032,-430.8738 1161.3322,-423.7145 1176.083,-412 1193.8332,-397.9036 1181.4329,-379.8822 1200.083,-367 1249.6516,-332.7613 1318.9421,-327.1038 1370.4463,-328.7787"/>
<polygon fill="#595959" stroke="#595959" points="1370.5003,-331.2327 1377.5918,-329.0615 1370.6942,-326.3365 1370.5003,-331.2327"/>
</g>
<!-- LIT&#45;&gt;COV -->
<g id="edge33" class="edge">
<title>LIT&#45;&gt;COV</title>
<path fill="none" stroke="#595959" d="M1113.2281,-141.0141C1134.6653,-145.0038 1158.7861,-152.8123 1176.083,-168 1238.4154,-222.7314 1261.6493,-324.3766 1269.3575,-371.6294"/>
<polygon fill="#595959" stroke="#595959" points="1266.9655,-372.1918 1270.4649,-378.7307 1271.8069,-371.4367 1266.9655,-372.1918"/>
</g>
<!-- LIT&#45;&gt;BETA -->
<g id="edge40" class="edge">
<title>LIT&#45;&gt;BETA</title>
<path fill="none" stroke="#595959" d="M1113.1822,-139.9391C1171.0201,-145.4219 1267.9273,-161.1155 1337.444,-206 1378.8674,-232.7456 1411.0436,-281.7938 1427.8348,-311.3967"/>
<polygon fill="#595959" stroke="#595959" points="1425.8325,-312.837 1431.3779,-317.7616 1430.1139,-310.4537 1425.8325,-312.837"/>
</g>
<!-- PIT&#45;&gt;COV -->
<g id="edge34" class="edge">
<title>PIT&#45;&gt;COV</title>
<path fill="none" stroke="#595959" d="M1117.7521,-385.1204C1143.039,-387.0583 1173.5552,-389.397 1200.7998,-391.4849"/>
<polygon fill="#595959" stroke="#595959" points="1200.8524,-393.946 1208.0192,-392.0382 1201.2269,-389.0604 1200.8524,-393.946"/>
</g>
<!-- PIT&#45;&gt;BETA -->
<g id="edge41" class="edge">
<title>PIT&#45;&gt;BETA</title>
<path fill="none" stroke="#595959" d="M1117.8166,-373.6049C1137.2706,-369.1825 1158.7034,-362.1516 1176.083,-351 1190.1639,-341.9651 1184.9444,-329.122 1200.083,-322 1255.5966,-295.8836 1326.4448,-304.2709 1376.8583,-316.2082"/>
<polygon fill="#595959" stroke="#595959" points="1376.4509,-318.6307 1383.8325,-317.913 1377.6144,-313.8709 1376.4509,-318.6307"/>
</g>
<!-- DVAC&#45;&gt;COV -->
<g id="edge35" class="edge">
<title>DVAC&#45;&gt;COV</title>
<path fill="none" stroke="#595959" d="M1120.6393,-204.795C1139.7318,-209.2719 1160.2018,-216.6947 1176.083,-229 1224.3386,-266.3899 1252.7517,-335.1489 1265.2128,-372.0447"/>
<polygon fill="#595959" stroke="#595959" points="1262.9794,-373.0959 1267.4935,-378.9803 1267.6341,-371.5652 1262.9794,-373.0959"/>
</g>
<!-- DVAC&#45;&gt;BETA -->
<g id="edge42" class="edge">
<title>DVAC&#45;&gt;BETA</title>
<path fill="none" stroke="#595959" d="M1120.7105,-200.8426C1177.8437,-205.5382 1267.332,-217.9888 1337.444,-251 1369.4581,-266.0734 1399.9509,-293.319 1419.3904,-312.9051"/>
<polygon fill="#595959" stroke="#595959" points="1417.6849,-314.6654 1424.3302,-317.9583 1421.1888,-311.24 1417.6849,-314.6654"/>
</g>
<!-- ALPH -->
<g id="node19" class="node">
<title>ALPH</title>
<path fill="#ffffff" stroke="#404040" d="M1469.2245,-415C1469.2245,-415 1412.2085,-415 1412.2085,-415 1406.2085,-415 1400.2085,-409 1400.2085,-403 1400.2085,-403 1400.2085,-391 1400.2085,-391 1400.2085,-385 1406.2085,-379 1412.2085,-379 1412.2085,-379 1469.2245,-379 1469.2245,-379 1475.2245,-379 1481.2245,-385 1481.2245,-391 1481.2245,-391 1481.2245,-403 1481.2245,-403 1481.2245,-409 1475.2245,-415 1469.2245,-415"/>
<text text-anchor="middle" x="1440.7165" y="-400" font-family="Helvetica,sans-Serif" font-size="10.00" fill="#000000">Alpha diversity</text>
<text text-anchor="middle" x="1440.7165" y="-388" font-family="Helvetica,sans-Serif" font-size="10.00" fill="#000000">(Hill q0/q1/q2)</text>
</g>
<!-- COV&#45;&gt;ALPH -->
<g id="edge37" class="edge">
<title>COV&#45;&gt;ALPH</title>
<path fill="none" stroke="#595959" d="M1337.6985,-397C1355.9525,-397 1375.4736,-397 1392.56,-397"/>
<polygon fill="#595959" stroke="#595959" points="1392.7229,-399.4501 1399.7229,-397 1392.7229,-394.5501 1392.7229,-399.4501"/>
</g>
<!-- SDM -->
<g id="node21" class="node">
<title>SDM</title>
<path fill="#ffffff" stroke="#404040" d="M1651.8405,-415C1651.8405,-415 1556.0385,-415 1556.0385,-415 1550.0385,-415 1544.0385,-409 1544.0385,-403 1544.0385,-403 1544.0385,-391 1544.0385,-391 1544.0385,-385 1550.0385,-379 1556.0385,-379 1556.0385,-379 1651.8405,-379 1651.8405,-379 1657.8405,-379 1663.8405,-385 1663.8405,-391 1663.8405,-391 1663.8405,-403 1663.8405,-403 1663.8405,-409 1657.8405,-415 1651.8405,-415"/>
<text text-anchor="middle" x="1603.9395" y="-400" font-family="Helvetica,sans-Serif" font-size="10.00" fill="#000000">SDM / jSDM</text>
<text text-anchor="middle" x="1603.9395" y="-388" font-family="Helvetica,sans-Serif" font-size="10.00" fill="#000000">(species–environment)</text>
</g>
<!-- ALPH&#45;&gt;SDM -->
<g id="edge44" class="edge">
<title>ALPH&#45;&gt;SDM</title>
<path fill="none" stroke="#595959" d="M1481.4835,-397C1498.1554,-397 1517.8913,-397 1536.5953,-397"/>
<polygon fill="#595959" stroke="#595959" points="1536.9797,-399.4501 1543.9796,-397 1536.9796,-394.5501 1536.9797,-399.4501"/>
</g>
<!-- BETA&#45;&gt;SDM -->
<g id="edge45" class="edge">
<title>BETA&#45;&gt;SDM</title>
<path fill="none" stroke="#595959" d="M1489.2469,-354.1369C1507.9924,-361.1425 1529.541,-369.1957 1548.8629,-376.4167"/>
<polygon fill="#595959" stroke="#595959" points="1548.1814,-378.7774 1555.5961,-378.933 1549.8968,-374.1875 1548.1814,-378.7774"/>
</g>
<!-- NET -->
<g id="node22" class="node">
<title>NET</title>
<path fill="#ffffff" stroke="#404040" d="M1644.3425,-354C1644.3425,-354 1563.5365,-354 1563.5365,-354 1557.5365,-354 1551.5365,-348 1551.5365,-342 1551.5365,-342 1551.5365,-330 1551.5365,-330 1551.5365,-324 1557.5365,-318 1563.5365,-318 1563.5365,-318 1644.3425,-318 1644.3425,-318 1650.3425,-318 1656.3425,-324 1656.3425,-330 1656.3425,-330 1656.3425,-342 1656.3425,-342 1656.3425,-348 1650.3425,-354 1644.3425,-354"/>
<text text-anchor="middle" x="1603.9395" y="-339" font-family="Helvetica,sans-Serif" font-size="10.00" fill="#000000">Co&#45;occurrence /</text>
<text text-anchor="middle" x="1603.9395" y="-327" font-family="Helvetica,sans-Serif" font-size="10.00" fill="#000000">interaction networks</text>
</g>
<!-- BETA&#45;&gt;NET -->
<g id="edge43" class="edge">
<title>BETA&#45;&gt;NET</title>
<path fill="none" stroke="#595959" d="M1503.8228,-336C1517.0688,-336 1531.0015,-336 1544.123,-336"/>
<polygon fill="#595959" stroke="#595959" points="1544.3198,-338.4501 1551.3198,-336 1544.3197,-333.5501 1544.3198,-338.4501"/>
</g>
</g>
</svg>

