<?xml version="1.0" encoding="UTF-8" standalone="no"?>
<!DOCTYPE svg PUBLIC "-//W3C//DTD SVG 1.1//EN"
 "http://www.w3.org/Graphics/SVG/1.1/DTD/svg11.dtd">
<!-- Generated by graphviz version 2.40.1 (20161225.0304)
 -->
<!-- Title: dag Pages: 1 -->
<svg width="1048pt" height="505pt"
 viewBox="0.00 0.00 1048.29 504.60" xmlns="http://www.w3.org/2000/svg" xmlns:xlink="http://www.w3.org/1999/xlink">
<g id="graph0" class="graph" transform="scale(1 1) rotate(0) translate(10.8 493.8)">
<title>dag</title>
<polygon fill="#ffffff" stroke="transparent" points="-10.8,10.8 -10.8,-493.8 1037.487,-493.8 1037.487,10.8 -10.8,10.8"/>
<g id="clust1" class="cluster">
<title>cluster_latent</title>
<path fill="#ffffff" stroke="#b3b3b3" stroke-dasharray="5,2" d="M183.117,-215C183.117,-215 357.024,-215 357.024,-215 363.024,-215 369.024,-221 369.024,-227 369.024,-227 369.024,-463 369.024,-463 369.024,-469 363.024,-475 357.024,-475 357.024,-475 183.117,-475 183.117,-475 177.117,-475 171.117,-469 171.117,-463 171.117,-463 171.117,-227 171.117,-227 171.117,-221 177.117,-215 183.117,-215"/>
<text text-anchor="middle" x="270.0705" y="-458.4" font-family="Times,serif" font-size="14.00" fill="#000000">Latent compartments (true state)</text>
</g>
<g id="clust2" class="cluster">
<title>cluster_filters</title>
<path fill="#ffffff" stroke="#b3b3b3" stroke-dasharray="5,2" d="M201.894,-8C201.894,-8 338.247,-8 338.247,-8 344.247,-8 350.247,-14 350.247,-20 350.247,-20 350.247,-195 350.247,-195 350.247,-201 344.247,-207 338.247,-207 338.247,-207 201.894,-207 201.894,-207 195.894,-207 189.894,-201 189.894,-195 189.894,-195 189.894,-20 189.894,-20 189.894,-14 195.894,-8 201.894,-8"/>
<text text-anchor="middle" x="270.0705" y="-190.4" font-family="Times,serif" font-size="14.00" fill="#000000">Observation filters</text>
</g>
<g id="clust3" class="cluster">
<title>cluster_obs</title>
<path fill="#ffffff" stroke="#b3b3b3" stroke-dasharray="5,2" d="M404.247,-8C404.247,-8 519.769,-8 519.769,-8 525.769,-8 531.769,-14 531.769,-20 531.769,-20 531.769,-378 531.769,-378 531.769,-384 525.769,-390 519.769,-390 519.769,-390 404.247,-390 404.247,-390 398.247,-390 392.247,-384 392.247,-378 392.247,-378 392.247,-20 392.247,-20 392.247,-14 398.247,-8 404.247,-8"/>
<text text-anchor="middle" x="462.008" y="-373.4" font-family="Times,serif" font-size="14.00" fill="#000000">Observed data (Y)</text>
</g>
<g id="clust4" class="cluster">
<title>cluster_ind</title>
<path fill="#ffffff" stroke="#b3b3b3" stroke-dasharray="5,2" d="M567.769,-207C567.769,-207 1006.687,-207 1006.687,-207 1012.687,-207 1018.687,-213 1018.687,-219 1018.687,-219 1018.687,-333 1018.687,-333 1018.687,-339 1012.687,-345 1006.687,-345 1006.687,-345 567.769,-345 567.769,-345 561.769,-345 555.769,-339 555.769,-333 555.769,-333 555.769,-219 555.769,-219 555.769,-213 561.769,-207 567.769,-207"/>
<text text-anchor="middle" x="787.228" y="-328.4" font-family="Times,serif" font-size="14.00" fill="#000000">Indicators</text>
</g>
<!-- ENV -->
<g id="node1" class="node">
<title>ENV</title>
<path fill="#ffffff" stroke="#404040" d="M127.841,-350C127.841,-350 12.053,-350 12.053,-350 6.053,-350 .053,-344 .053,-338 .053,-338 .053,-326 .053,-326 .053,-320 6.053,-314 12.053,-314 12.053,-314 127.841,-314 127.841,-314 133.841,-314 139.841,-320 139.841,-326 139.841,-326 139.841,-338 139.841,-338 139.841,-344 133.841,-350 127.841,-350"/>
<text text-anchor="middle" x="69.947" y="-335" font-family="Helvetica,sans-Serif" font-size="10.00" fill="#000000">ENV</text>
<text text-anchor="middle" x="69.947" y="-323" font-family="Helvetica,sans-Serif" font-size="10.00" fill="#000000">(land use, sol, climat, NDVI)</text>
</g>
<!-- LSOIL -->
<g id="node2" class="node">
<title>LSOIL</title>
<path fill="#ffffff" stroke="#404040" d="M299.8488,-442C299.8488,-442 240.2922,-442 240.2922,-442 234.2922,-442 228.2922,-436 228.2922,-430 228.2922,-430 228.2922,-418 228.2922,-418 228.2922,-412 234.2922,-406 240.2922,-406 240.2922,-406 299.8488,-406 299.8488,-406 305.8488,-406 311.8488,-412 311.8488,-418 311.8488,-418 311.8488,-430 311.8488,-430 311.8488,-436 305.8488,-442 299.8488,-442"/>
<text text-anchor="middle" x="270.0705" y="-427" font-family="Helvetica,sans-Serif" font-size="10.00" fill="#000000">Soil community</text>
<text text-anchor="middle" x="270.0705" y="-415" font-family="Helvetica,sans-Serif" font-size="10.00" fill="#000000">(latent)</text>
</g>
<!-- ENV&#45;&gt;LSOIL -->
<g id="edge1" class="edge">
<title>ENV&#45;&gt;LSOIL</title>
<path fill="none" stroke="#595959" d="M95.5579,-350.2397C115.428,-363.7496 144.0563,-381.8478 171.117,-394 187.0223,-401.1426 205.1022,-407.1837 221.4173,-411.931"/>
<polygon fill="#595959" stroke="#595959" points="220.8867,-414.3272 228.2899,-413.8858 222.2272,-409.6141 220.8867,-414.3272"/>
</g>
<!-- LLIT -->
<g id="node3" class="node">
<title>LLIT</title>
<path fill="#ffffff" stroke="#404040" d="M302.9071,-259C302.9071,-259 237.2339,-259 237.2339,-259 231.2339,-259 225.2339,-253 225.2339,-247 225.2339,-247 225.2339,-235 225.2339,-235 225.2339,-229 231.2339,-223 237.2339,-223 237.2339,-223 302.9071,-223 302.9071,-223 308.9071,-223 314.9071,-229 314.9071,-235 314.9071,-235 314.9071,-247 314.9071,-247 314.9071,-253 308.9071,-259 302.9071,-259"/>
<text text-anchor="middle" x="270.0705" y="-244" font-family="Helvetica,sans-Serif" font-size="10.00" fill="#000000">Litter community</text>
<text text-anchor="middle" x="270.0705" y="-232" font-family="Helvetica,sans-Serif" font-size="10.00" fill="#000000">(latent)</text>
</g>
<!-- ENV&#45;&gt;LLIT -->
<g id="edge2" class="edge">
<title>ENV&#45;&gt;LLIT</title>
<path fill="none" stroke="#595959" d="M96.5105,-313.9278C116.402,-300.9785 144.6331,-283.8094 171.117,-272 185.9458,-265.3877 202.6076,-259.5869 217.9706,-254.8465"/>
<polygon fill="#595959" stroke="#595959" points="218.9348,-257.1146 224.9266,-252.744 217.5171,-252.4241 218.9348,-257.1146"/>
</g>
<!-- LSURF -->
<g id="node4" class="node">
<title>LSURF</title>
<path fill="#ffffff" stroke="#404040" d="M323.5815,-320C323.5815,-320 216.5595,-320 216.5595,-320 210.5595,-320 204.5595,-314 204.5595,-308 204.5595,-308 204.5595,-296 204.5595,-296 204.5595,-290 210.5595,-284 216.5595,-284 216.5595,-284 323.5815,-284 323.5815,-284 329.5815,-284 335.5815,-290 335.5815,-296 335.5815,-296 335.5815,-308 335.5815,-308 335.5815,-314 329.5815,-320 323.5815,-320"/>
<text text-anchor="middle" x="270.0705" y="-305" font-family="Helvetica,sans-Serif" font-size="10.00" fill="#000000">Surface&#45;active community</text>
<text text-anchor="middle" x="270.0705" y="-293" font-family="Helvetica,sans-Serif" font-size="10.00" fill="#000000">(latent)</text>
</g>
<!-- ENV&#45;&gt;LSURF -->
<g id="edge3" class="edge">
<title>ENV&#45;&gt;LSURF</title>
<path fill="none" stroke="#595959" d="M139.9405,-321.5075C158.4486,-318.733 178.4697,-315.7316 197.1297,-312.9344"/>
<polygon fill="#595959" stroke="#595959" points="197.9226,-315.293 204.482,-311.8322 197.1961,-310.4471 197.9226,-315.293"/>
</g>
<!-- LVEG -->
<g id="node5" class="node">
<title>LVEG</title>
<path fill="#ffffff" stroke="#404040" d="M327.9775,-381C327.9775,-381 212.1635,-381 212.1635,-381 206.1635,-381 200.1635,-375 200.1635,-369 200.1635,-369 200.1635,-357 200.1635,-357 200.1635,-351 206.1635,-345 212.1635,-345 212.1635,-345 327.9775,-345 327.9775,-345 333.9775,-345 339.9775,-351 339.9775,-357 339.9775,-357 339.9775,-369 339.9775,-369 339.9775,-375 333.9775,-381 327.9775,-381"/>
<text text-anchor="middle" x="270.0705" y="-366" font-family="Helvetica,sans-Serif" font-size="10.00" fill="#000000">Vegetation&#45;layer community</text>
<text text-anchor="middle" x="270.0705" y="-354" font-family="Helvetica,sans-Serif" font-size="10.00" fill="#000000">(latent)</text>
</g>
<!-- ENV&#45;&gt;LVEG -->
<g id="edge4" class="edge">
<title>ENV&#45;&gt;LVEG</title>
<path fill="none" stroke="#595959" d="M139.9405,-342.8423C157.155,-345.5089 175.6784,-348.3783 193.1981,-351.0921"/>
<polygon fill="#595959" stroke="#595959" points="192.824,-353.5133 200.1165,-352.1638 193.5741,-348.6711 192.824,-353.5133"/>
</g>
<!-- HS -->
<g id="node9" class="node">
<title>HS</title>
<path fill="#ffffff" stroke="#404040" d="M494.8547,-296C494.8547,-296 429.1613,-296 429.1613,-296 423.1613,-296 417.1613,-290 417.1613,-284 417.1613,-284 417.1613,-272 417.1613,-272 417.1613,-266 423.1613,-260 429.1613,-260 429.1613,-260 494.8547,-260 494.8547,-260 500.8547,-260 506.8547,-266 506.8547,-272 506.8547,-272 506.8547,-284 506.8547,-284 506.8547,-290 500.8547,-296 494.8547,-296"/>
<text text-anchor="middle" x="462.008" y="-281" font-family="Helvetica,sans-Serif" font-size="10.00" fill="#000000">Hand&#45;sorting std</text>
<text text-anchor="middle" x="462.008" y="-269" font-family="Helvetica,sans-Serif" font-size="10.00" fill="#000000">(6 reps)</text>
</g>
<!-- LSOIL&#45;&gt;HS -->
<g id="edge5" class="edge">
<title>LSOIL&#45;&gt;HS</title>
<path fill="none" stroke="#595959" d="M311.9594,-420.5771C331.6997,-416.872 354.1289,-409.313 369.024,-394 396.3303,-365.9277 366.7296,-338.7077 392.247,-309 397.3379,-303.0731 403.7837,-298.2319 410.6902,-294.2908"/>
<polygon fill="#595959" stroke="#595959" points="412.0695,-296.3344 417.1369,-290.9191 409.7985,-291.9924 412.0695,-296.3344"/>
</g>
<!-- HQ -->
<g id="node10" class="node">
<title>HQ</title>
<path fill="#ffffff" stroke="#404040" d="M497.412,-357C497.412,-357 426.604,-357 426.604,-357 420.604,-357 414.604,-351 414.604,-345 414.604,-345 414.604,-333 414.604,-333 414.604,-327 420.604,-321 426.604,-321 426.604,-321 497.412,-321 497.412,-321 503.412,-321 509.412,-327 509.412,-333 509.412,-333 509.412,-345 509.412,-345 509.412,-351 503.412,-357 497.412,-357"/>
<text text-anchor="middle" x="462.008" y="-342" font-family="Helvetica,sans-Serif" font-size="10.00" fill="#000000">Hand&#45;sorting qual</text>
<text text-anchor="middle" x="462.008" y="-330" font-family="Helvetica,sans-Serif" font-size="10.00" fill="#000000">(40 min list)</text>
</g>
<!-- LSOIL&#45;&gt;HQ -->
<g id="edge6" class="edge">
<title>LSOIL&#45;&gt;HQ</title>
<path fill="none" stroke="#595959" d="M312.2765,-413.6124C330.1356,-408.6049 350.9475,-401.9482 369.024,-394 389.8202,-384.8559 411.7531,-372.0522 429.0915,-361.0989"/>
<polygon fill="#595959" stroke="#595959" points="430.681,-362.9908 435.2609,-357.1574 428.0429,-358.8615 430.681,-362.9908"/>
</g>
<!-- CORE -->
<g id="node11" class="node">
<title>CORE</title>
<path fill="#ffffff" stroke="#404040" d="M511.5309,-235C511.5309,-235 412.4851,-235 412.4851,-235 406.4851,-235 400.4851,-229 400.4851,-223 400.4851,-223 400.4851,-211 400.4851,-211 400.4851,-205 406.4851,-199 412.4851,-199 412.4851,-199 511.5309,-199 511.5309,-199 517.5309,-199 523.5309,-205 523.5309,-211 523.5309,-211 523.5309,-223 523.5309,-223 523.5309,-229 517.5309,-235 511.5309,-235"/>
<text text-anchor="middle" x="462.008" y="-220" font-family="Helvetica,sans-Serif" font-size="10.00" fill="#000000">Soil cores + MacFadyen</text>
<text text-anchor="middle" x="462.008" y="-208" font-family="Helvetica,sans-Serif" font-size="10.00" fill="#000000">(6 reps)</text>
</g>
<!-- LSOIL&#45;&gt;CORE -->
<g id="edge7" class="edge">
<title>LSOIL&#45;&gt;CORE</title>
<path fill="none" stroke="#595959" d="M312.1931,-421.3428C332.2393,-417.8432 354.8669,-410.2367 369.024,-394 412.2045,-344.4768 352.2128,-300.0995 392.247,-248 394.6696,-244.8473 397.4824,-242.0078 400.5607,-239.4514"/>
<polygon fill="#595959" stroke="#595959" points="402.1986,-241.287 406.3615,-235.1491 399.2796,-237.3513 402.1986,-241.287"/>
</g>
<!-- LIT -->
<g id="node12" class="node">
<title>LIT</title>
<path fill="#ffffff" stroke="#404040" d="M500.8621,-52C500.8621,-52 423.1539,-52 423.1539,-52 417.1539,-52 411.1539,-46 411.1539,-40 411.1539,-40 411.1539,-28 411.1539,-28 411.1539,-22 417.1539,-16 423.1539,-16 423.1539,-16 500.8621,-16 500.8621,-16 506.8621,-16 512.8621,-22 512.8621,-28 512.8621,-28 512.8621,-40 512.8621,-40 512.8621,-46 506.8621,-52 500.8621,-52"/>
<text text-anchor="middle" x="462.008" y="-37" font-family="Helvetica,sans-Serif" font-size="10.00" fill="#000000">Litter + MacFadyen</text>
<text text-anchor="middle" x="462.008" y="-25" font-family="Helvetica,sans-Serif" font-size="10.00" fill="#000000">(1 L, forests)</text>
</g>
<!-- LLIT&#45;&gt;LIT -->
<g id="edge8" class="edge">
<title>LLIT&#45;&gt;LIT</title>
<path fill="none" stroke="#595959" d="M314.9158,-238.8135C334.2368,-235.5114 355.4624,-228.2967 369.024,-213 413.1944,-163.1781 351.7332,-117.8382 392.247,-65 395.7058,-60.489 399.9638,-56.6194 404.6562,-53.3029"/>
<polygon fill="#595959" stroke="#595959" points="406.2138,-55.2158 410.8046,-49.3911 403.5835,-51.0816 406.2138,-55.2158"/>
</g>
<!-- PIT -->
<g id="node13" class="node">
<title>PIT</title>
<path fill="#ffffff" stroke="#404040" d="M503.6885,-113C503.6885,-113 420.3275,-113 420.3275,-113 414.3275,-113 408.3275,-107 408.3275,-101 408.3275,-101 408.3275,-89 408.3275,-89 408.3275,-83 414.3275,-77 420.3275,-77 420.3275,-77 503.6885,-77 503.6885,-77 509.6885,-77 515.6885,-83 515.6885,-89 515.6885,-89 515.6885,-101 515.6885,-101 515.6885,-107 509.6885,-113 503.6885,-113"/>
<text text-anchor="middle" x="462.008" y="-98" font-family="Helvetica,sans-Serif" font-size="10.00" fill="#000000">Pitfall traps</text>
<text text-anchor="middle" x="462.008" y="-86" font-family="Helvetica,sans-Serif" font-size="10.00" fill="#000000">(Barber / GPD, 30 d)</text>
</g>
<!-- LSURF&#45;&gt;PIT -->
<g id="edge9" class="edge">
<title>LSURF&#45;&gt;PIT</title>
<path fill="none" stroke="#595959" d="M335.7617,-293.253C348.3424,-288.7434 360.2938,-282.0126 369.024,-272 412.2045,-222.4768 352.2128,-178.0995 392.247,-126 395.0557,-122.3449 398.3889,-119.1107 402.0523,-116.2506"/>
<polygon fill="#595959" stroke="#595959" points="403.7184,-118.0752 408.0528,-112.0572 400.9116,-114.0588 403.7184,-118.0752"/>
</g>
<!-- DVAC -->
<g id="node14" class="node">
<title>DVAC</title>
<path fill="#ffffff" stroke="#404040" d="M491.1946,-174C491.1946,-174 432.8214,-174 432.8214,-174 426.8214,-174 420.8214,-168 420.8214,-162 420.8214,-162 420.8214,-150 420.8214,-150 420.8214,-144 426.8214,-138 432.8214,-138 432.8214,-138 491.1946,-138 491.1946,-138 497.1946,-138 503.1946,-144 503.1946,-150 503.1946,-150 503.1946,-162 503.1946,-162 503.1946,-168 497.1946,-174 491.1946,-174"/>
<text text-anchor="middle" x="462.008" y="-159" font-family="Helvetica,sans-Serif" font-size="10.00" fill="#000000">DVAC</text>
<text text-anchor="middle" x="462.008" y="-147" font-family="Helvetica,sans-Serif" font-size="10.00" fill="#000000">(open habitats)</text>
</g>
<!-- LVEG&#45;&gt;DVAC -->
<g id="edge10" class="edge">
<title>LVEG&#45;&gt;DVAC</title>
<path fill="none" stroke="#595959" d="M340.0681,-352.6095C351.0455,-348.1538 361.2966,-341.8625 369.024,-333 412.2045,-283.4768 352.2128,-239.0995 392.247,-187 397.9098,-179.6306 405.7048,-173.9724 414.0389,-169.641"/>
<polygon fill="#595959" stroke="#595959" points="415.216,-171.7943 420.4907,-166.5809 413.1161,-167.3671 415.216,-171.7943"/>
</g>
<!-- DET -->
<g id="node6" class="node">
<title>DET</title>
<path fill="#ffffff" stroke="#404040" d="M321.0745,-174C321.0745,-174 219.0665,-174 219.0665,-174 213.0665,-174 207.0665,-168 207.0665,-162 207.0665,-162 207.0665,-150 207.0665,-150 207.0665,-144 213.0665,-138 219.0665,-138 219.0665,-138 321.0745,-138 321.0745,-138 327.0745,-138 333.0745,-144 333.0745,-150 333.0745,-150 333.0745,-162 333.0745,-162 333.0745,-168 327.0745,-174 321.0745,-174"/>
<text text-anchor="middle" x="270.0705" y="-159" font-family="Helvetica,sans-Serif" font-size="10.00" fill="#000000">Detectability p</text>
<text text-anchor="middle" x="270.0705" y="-147" font-family="Helvetica,sans-Serif" font-size="10.00" fill="#000000">(protocol × group × time)</text>
</g>
<!-- DET&#45;&gt;HS -->
<g id="edge11" class="edge">
<title>DET&#45;&gt;HS</title>
<path fill="none" stroke="#595959" d="M315.7917,-174.0798C333.8184,-182.7535 353.8076,-194.4585 369.024,-209 383.6087,-222.9378 377.0794,-234.699 392.247,-248 397.6739,-252.7591 403.9704,-256.8547 410.5162,-260.353"/>
<polygon fill="#595959" stroke="#595959" points="409.7654,-262.7167 417.1222,-263.6546 411.956,-258.3336 409.7654,-262.7167"/>
</g>
<!-- DET&#45;&gt;HQ -->
<g id="edge12" class="edge">
<title>DET&#45;&gt;HQ</title>
<path fill="none" stroke="#595959" d="M322.8364,-174.0692C339.8355,-182.2868 357.2922,-193.6832 369.024,-209 396.7686,-245.2226 362.9781,-273.9976 392.247,-309 396.687,-314.3097 402.2398,-318.7033 408.2623,-322.3333"/>
<polygon fill="#595959" stroke="#595959" points="407.1026,-324.4915 414.4175,-325.7143 409.4617,-320.1968 407.1026,-324.4915"/>
</g>
<!-- DET&#45;&gt;CORE -->
<g id="edge13" class="edge">
<title>DET&#45;&gt;CORE</title>
<path fill="none" stroke="#595959" d="M326.879,-174.0544C349.4159,-181.2169 375.4304,-189.4846 398.5797,-196.8417"/>
<polygon fill="#595959" stroke="#595959" points="397.932,-199.2066 405.3452,-198.9919 399.4161,-194.5367 397.932,-199.2066"/>
</g>
<!-- DET&#45;&gt;LIT -->
<g id="edge14" class="edge">
<title>DET&#45;&gt;LIT</title>
<path fill="none" stroke="#595959" d="M333.2424,-146.1655C346.2739,-141.7316 359.0479,-135.3067 369.024,-126 390.236,-106.2113 372.2998,-86.063 392.247,-65 395.8809,-61.1629 400.0752,-57.769 404.5673,-54.7734"/>
<polygon fill="#595959" stroke="#595959" points="406.1581,-56.6725 410.8527,-50.9311 403.6023,-52.4917 406.1581,-56.6725"/>
</g>
<!-- DET&#45;&gt;PIT -->
<g id="edge15" class="edge">
<title>DET&#45;&gt;PIT</title>
<path fill="none" stroke="#595959" d="M330.5933,-137.9387C343.3079,-134.0639 356.6219,-129.9465 369.024,-126 379.6324,-122.6242 390.8913,-118.9493 401.7755,-115.3486"/>
<polygon fill="#595959" stroke="#595959" points="402.6223,-117.649 408.4949,-113.1196 401.0795,-112.9983 402.6223,-117.649"/>
</g>
<!-- DET&#45;&gt;DVAC -->
<g id="edge16" class="edge">
<title>DET&#45;&gt;DVAC</title>
<path fill="none" stroke="#595959" d="M333.1839,-156C359.3382,-156 389.195,-156 413.5756,-156"/>
<polygon fill="#595959" stroke="#595959" points="413.6267,-158.4501 420.6267,-156 413.6267,-153.5501 413.6267,-158.4501"/>
</g>
<!-- EFF -->
<g id="node7" class="node">
<title>EFF</title>
<path fill="#ffffff" stroke="#404040" d="M330.4239,-113C330.4239,-113 209.7171,-113 209.7171,-113 203.7171,-113 197.7171,-107 197.7171,-101 197.7171,-101 197.7171,-89 197.7171,-89 197.7171,-83 203.7171,-77 209.7171,-77 209.7171,-77 330.4239,-77 330.4239,-77 336.4239,-77 342.4239,-83 342.4239,-89 342.4239,-89 342.4239,-101 342.4239,-101 342.4239,-107 336.4239,-113 330.4239,-113"/>
<text text-anchor="middle" x="270.0705" y="-98" font-family="Helvetica,sans-Serif" font-size="10.00" fill="#000000">Effort</text>
<text text-anchor="middle" x="270.0705" y="-86" font-family="Helvetica,sans-Serif" font-size="10.00" fill="#000000">(reps, duration, volume/area)</text>
</g>
<!-- EFF&#45;&gt;HS -->
<g id="edge17" class="edge">
<title>EFF&#45;&gt;HS</title>
<path fill="none" stroke="#595959" d="M342.6309,-107.5052C352.5873,-111.9461 361.8396,-117.934 369.024,-126 405.7358,-167.2168 357.6957,-204.956 392.247,-248 397.1754,-254.1398 403.6007,-259.0476 410.5563,-262.9641"/>
<polygon fill="#595959" stroke="#595959" points="409.7171,-265.2865 417.0655,-266.289 411.9462,-260.9229 409.7171,-265.2865"/>
</g>
<!-- EFF&#45;&gt;HQ -->
<g id="edge18" class="edge">
<title>EFF&#45;&gt;HQ</title>
<path fill="none" stroke="#595959" d="M342.5801,-106.898C352.67,-111.4088 361.9771,-117.5776 369.024,-126 421.6343,-188.8792 342.9282,-243.5073 392.247,-309 396.5296,-314.687 402.1094,-319.3097 408.2487,-323.064"/>
<polygon fill="#595959" stroke="#595959" points="407.2341,-325.3022 414.5472,-326.536 409.5997,-321.011 407.2341,-325.3022"/>
</g>
<!-- EFF&#45;&gt;CORE -->
<g id="edge19" class="edge">
<title>EFF&#45;&gt;CORE</title>
<path fill="none" stroke="#595959" d="M342.4448,-109.1016C352.1852,-113.3364 361.4219,-118.8421 369.024,-126 390.1444,-145.8864 372.1734,-166.0574 392.247,-187 394.9838,-189.8553 398.0372,-192.4534 401.2954,-194.8153"/>
<polygon fill="#595959" stroke="#595959" points="400.1654,-197.005 407.3572,-198.8163 402.8646,-192.9154 400.1654,-197.005"/>
</g>
<!-- EFF&#45;&gt;LIT -->
<g id="edge20" class="edge">
<title>EFF&#45;&gt;LIT</title>
<path fill="none" stroke="#595959" d="M330.5933,-76.9387C343.3079,-73.0639 356.6219,-68.9465 369.024,-65 380.4102,-61.3767 392.5459,-57.4088 404.1632,-53.5579"/>
<polygon fill="#595959" stroke="#595959" points="405.0639,-55.8404 410.9339,-51.3076 403.5184,-51.1905 405.0639,-55.8404"/>
</g>
<!-- EFF&#45;&gt;PIT -->
<g id="edge21" class="edge">
<title>EFF&#45;&gt;PIT</title>
<path fill="none" stroke="#595959" d="M342.3603,-95C361.5921,-95 382.177,-95 400.7557,-95"/>
<polygon fill="#595959" stroke="#595959" points="401.0404,-97.4501 408.0404,-95 401.0404,-92.5501 401.0404,-97.4501"/>
</g>
<!-- EFF&#45;&gt;DVAC -->
<g id="edge22" class="edge">
<title>EFF&#45;&gt;DVAC</title>
<path fill="none" stroke="#595959" d="M327.9152,-113.0309C341.4131,-117.2635 355.7278,-121.7725 369.024,-126 383.4715,-130.5936 399.1646,-135.6363 413.4725,-140.2547"/>
<polygon fill="#595959" stroke="#595959" points="412.9594,-142.6635 420.3736,-142.4839 414.4657,-138.0008 412.9594,-142.6635"/>
</g>
<!-- ID -->
<g id="node8" class="node">
<title>ID</title>
<path fill="#ffffff" stroke="#404040" d="M322.9675,-52C322.9675,-52 217.1735,-52 217.1735,-52 211.1735,-52 205.1735,-46 205.1735,-40 205.1735,-40 205.1735,-28 205.1735,-28 205.1735,-22 211.1735,-16 217.1735,-16 217.1735,-16 322.9675,-16 322.9675,-16 328.9675,-16 334.9675,-22 334.9675,-28 334.9675,-28 334.9675,-40 334.9675,-40 334.9675,-46 328.9675,-52 322.9675,-52"/>
<text text-anchor="middle" x="270.0705" y="-37" font-family="Helvetica,sans-Serif" font-size="10.00" fill="#000000">Identification</text>
<text text-anchor="middle" x="270.0705" y="-25" font-family="Helvetica,sans-Serif" font-size="10.00" fill="#000000">(prob. of species&#45;level ID)</text>
</g>
<!-- ID&#45;&gt;HS -->
<g id="edge23" class="edge">
<title>ID&#45;&gt;HS</title>
<path fill="none" stroke="#595959" d="M335.0167,-42.8622C347.9562,-47.5113 360.2442,-54.5065 369.024,-65 421.6343,-127.8792 342.9282,-182.5073 392.247,-248 397.0438,-254.3699 403.4682,-259.4045 410.4833,-263.3792"/>
<polygon fill="#595959" stroke="#595959" points="409.7137,-265.7371 417.062,-266.7393 411.9425,-261.3734 409.7137,-265.7371"/>
</g>
<!-- ID&#45;&gt;CORE -->
<g id="edge24" class="edge">
<title>ID&#45;&gt;CORE</title>
<path fill="none" stroke="#595959" d="M335.053,-43.4563C347.8318,-48.082 360.0435,-54.9175 369.024,-65 405.7358,-106.2168 357.6957,-143.956 392.247,-187 394.452,-189.747 396.9567,-192.2474 399.6744,-194.5227"/>
<polygon fill="#595959" stroke="#595959" points="398.448,-196.6643 405.5244,-198.884 401.3767,-192.7358 398.448,-196.6643"/>
</g>
<!-- ID&#45;&gt;LIT -->
<g id="edge25" class="edge">
<title>ID&#45;&gt;LIT</title>
<path fill="none" stroke="#595959" d="M335.0518,-34C357.3296,-34 382.103,-34 403.8091,-34"/>
<polygon fill="#595959" stroke="#595959" points="404.0448,-36.4501 411.0447,-34 404.0447,-31.5501 404.0448,-36.4501"/>
</g>
<!-- ID&#45;&gt;PIT -->
<g id="edge26" class="edge">
<title>ID&#45;&gt;PIT</title>
<path fill="none" stroke="#595959" d="M327.9152,-52.0309C341.4131,-56.2635 355.7278,-60.7725 369.024,-65 379.3671,-68.2886 390.3486,-71.8074 401.0032,-75.2359"/>
<polygon fill="#595959" stroke="#595959" points="400.5335,-77.6585 407.9476,-77.4725 402.0358,-72.9944 400.5335,-77.6585"/>
</g>
<!-- ID&#45;&gt;DVAC -->
<g id="edge27" class="edge">
<title>ID&#45;&gt;DVAC</title>
<path fill="none" stroke="#595959" d="M335.0627,-45.1579C347.4647,-49.6868 359.5214,-56.0526 369.024,-65 390.1444,-84.8864 372.1734,-105.0574 392.247,-126 398.3051,-132.3203 405.9143,-137.3803 413.8623,-141.4085"/>
<polygon fill="#595959" stroke="#595959" points="413.2128,-143.8094 420.5917,-144.5546 415.2881,-139.3705 413.2128,-143.8094"/>
</g>
<!-- COV -->
<g id="node15" class="node">
<title>COV</title>
<path fill="#ffffff" stroke="#404040" d="M681.311,-312C681.311,-312 575.588,-312 575.588,-312 569.588,-312 563.588,-306 563.588,-300 563.588,-300 563.588,-288 563.588,-288 563.588,-282 569.588,-276 575.588,-276 575.588,-276 681.311,-276 681.311,-276 687.311,-276 693.311,-282 693.311,-288 693.311,-288 693.311,-300 693.311,-300 693.311,-306 687.311,-312 681.311,-312"/>
<text text-anchor="middle" x="628.4495" y="-291" font-family="Helvetica,sans-Serif" font-size="10.00" fill="#000000">Coverage / completeness</text>
</g>
<!-- HS&#45;&gt;COV -->
<g id="edge28" class="edge">
<title>HS&#45;&gt;COV</title>
<path fill="none" stroke="#595959" d="M507.0495,-282.3298C522.2969,-283.7956 539.7273,-285.4711 556.5314,-287.0865"/>
<polygon fill="#595959" stroke="#595959" points="556.4842,-289.5432 563.6865,-287.7743 556.9531,-284.6657 556.4842,-289.5432"/>
</g>
<!-- BETA -->
<g id="node17" class="node">
<title>BETA</title>
<path fill="#ffffff" stroke="#404040" d="M847.4483,-251C847.4483,-251 745.3567,-251 745.3567,-251 739.3567,-251 733.3567,-245 733.3567,-239 733.3567,-239 733.3567,-227 733.3567,-227 733.3567,-221 739.3567,-215 745.3567,-215 745.3567,-215 847.4483,-215 847.4483,-215 853.4483,-215 859.4483,-221 859.4483,-227 859.4483,-227 859.4483,-239 859.4483,-239 859.4483,-245 853.4483,-251 847.4483,-251"/>
<text text-anchor="middle" x="796.4025" y="-236" font-family="Helvetica,sans-Serif" font-size="10.00" fill="#000000">Community structure</text>
<text text-anchor="middle" x="796.4025" y="-224" font-family="Helvetica,sans-Serif" font-size="10.00" fill="#000000">(ordination / dissimilarity)</text>
</g>
<!-- HS&#45;&gt;BETA -->
<g id="edge35" class="edge">
<title>HS&#45;&gt;BETA</title>
<path fill="none" stroke="#595959" d="M506.8119,-271.1228C522.309,-268.7938 539.7935,-266.2215 555.769,-264 613.1297,-256.0236 678.2854,-247.6733 726.3183,-241.6514"/>
<polygon fill="#595959" stroke="#595959" points="726.6365,-244.0808 733.2779,-240.7802 726.0278,-239.2188 726.6365,-244.0808"/>
</g>
<!-- HQ&#45;&gt;COV -->
<g id="edge29" class="edge">
<title>HQ&#45;&gt;COV</title>
<path fill="none" stroke="#595959" d="M509.7035,-326.1048C524.4128,-322.1279 540.9449,-317.6582 556.894,-313.3461"/>
<polygon fill="#595959" stroke="#595959" points="557.5686,-315.7018 563.6865,-311.5097 556.2897,-310.9716 557.5686,-315.7018"/>
</g>
<!-- CORE&#45;&gt;COV -->
<g id="edge30" class="edge">
<title>CORE&#45;&gt;COV</title>
<path fill="none" stroke="#595959" d="M503.0337,-235.0184C512.4926,-239.2316 522.4978,-243.7353 531.769,-248 549.0623,-255.9547 567.9909,-264.9062 584.4792,-272.784"/>
<polygon fill="#595959" stroke="#595959" points="583.5349,-275.0482 590.9068,-275.8596 585.6499,-270.6281 583.5349,-275.0482"/>
</g>
<!-- CORE&#45;&gt;BETA -->
<g id="edge36" class="edge">
<title>CORE&#45;&gt;BETA</title>
<path fill="none" stroke="#595959" d="M523.8942,-215.4223C570.4868,-214.7471 635.896,-214.8894 693.13,-219 703.7889,-219.7655 715.0265,-220.923 726.0085,-222.2509"/>
<polygon fill="#595959" stroke="#595959" points="725.9301,-224.71 733.1796,-223.1456 726.5369,-219.8477 725.9301,-224.71"/>
</g>
<!-- LIT&#45;&gt;COV -->
<g id="edge31" class="edge">
<title>LIT&#45;&gt;COV</title>
<path fill="none" stroke="#595959" d="M512.986,-51.1021C519.8591,-54.9226 526.3846,-59.514 531.769,-65 589.5868,-123.9081 614.9774,-222.6228 624.1212,-268.7784"/>
<polygon fill="#595959" stroke="#595959" points="621.7278,-269.307 625.4517,-275.7207 626.5402,-268.3846 621.7278,-269.307"/>
</g>
<!-- LIT&#45;&gt;BETA -->
<g id="edge37" class="edge">
<title>LIT&#45;&gt;BETA</title>
<path fill="none" stroke="#595959" d="M513.2186,-43.9811C562.481,-55.3388 637.4762,-77.375 693.13,-115 730.5044,-140.2671 762.7662,-182.2675 780.8735,-208.7499"/>
<polygon fill="#595959" stroke="#595959" points="779.0082,-210.3661 784.9508,-214.8032 783.0722,-207.6287 779.0082,-210.3661"/>
</g>
<!-- PIT&#45;&gt;COV -->
<g id="edge32" class="edge">
<title>PIT&#45;&gt;COV</title>
<path fill="none" stroke="#595959" d="M513.1189,-113.102C519.8156,-116.754 526.2552,-121.0319 531.769,-126 576.7693,-166.5466 606.2853,-233.1312 619.8443,-269.0922"/>
<polygon fill="#595959" stroke="#595959" points="617.62,-270.1415 622.3432,-275.8593 622.2166,-268.444 617.62,-270.1415"/>
</g>
<!-- PIT&#45;&gt;BETA -->
<g id="edge38" class="edge">
<title>PIT&#45;&gt;BETA</title>
<path fill="none" stroke="#595959" d="M516.0151,-109.4668C563.6559,-123.0504 634.4384,-145.2558 693.13,-172 717.5148,-183.1115 743.48,-198.4661 763.2749,-210.9901"/>
<polygon fill="#595959" stroke="#595959" points="761.9925,-213.0781 769.2115,-214.7781 764.6283,-208.9473 761.9925,-213.0781"/>
</g>
<!-- DVAC&#45;&gt;COV -->
<g id="edge33" class="edge">
<title>DVAC&#45;&gt;COV</title>
<path fill="none" stroke="#595959" d="M503.4154,-170.9881C513.1516,-175.418 523.1837,-180.7785 531.769,-187 564.2877,-210.5654 594.0127,-246.6087 611.6777,-270.2408"/>
<polygon fill="#595959" stroke="#595959" points="609.7754,-271.789 615.9034,-275.9664 613.7179,-268.8793 609.7754,-271.789"/>
</g>
<!-- DVAC&#45;&gt;BETA -->
<g id="edge39" class="edge">
<title>DVAC&#45;&gt;BETA</title>
<path fill="none" stroke="#595959" d="M503.3492,-165.4419C549.598,-176.0136 626.7449,-193.6747 693.13,-209 703.8982,-211.4859 715.2958,-214.1258 726.4354,-216.7109"/>
<polygon fill="#595959" stroke="#595959" points="725.9573,-219.115 733.33,-218.3114 727.0654,-214.3419 725.9573,-219.115"/>
</g>
<!-- ALPH -->
<g id="node16" class="node">
<title>ALPH</title>
<path fill="#ffffff" stroke="#404040" d="M824.9105,-312C824.9105,-312 767.8945,-312 767.8945,-312 761.8945,-312 755.8945,-306 755.8945,-300 755.8945,-300 755.8945,-288 755.8945,-288 755.8945,-282 761.8945,-276 767.8945,-276 767.8945,-276 824.9105,-276 824.9105,-276 830.9105,-276 836.9105,-282 836.9105,-288 836.9105,-288 836.9105,-300 836.9105,-300 836.9105,-306 830.9105,-312 824.9105,-312"/>
<text text-anchor="middle" x="796.4025" y="-297" font-family="Helvetica,sans-Serif" font-size="10.00" fill="#000000">Alpha diversity</text>
<text text-anchor="middle" x="796.4025" y="-285" font-family="Helvetica,sans-Serif" font-size="10.00" fill="#000000">(Hill q0/q1/q2)</text>
</g>
<!-- COV&#45;&gt;ALPH -->
<g id="edge34" class="edge">
<title>COV&#45;&gt;ALPH</title>
<path fill="none" stroke="#595959" d="M693.3845,-294C711.6385,-294 731.1596,-294 748.246,-294"/>
<polygon fill="#595959" stroke="#595959" points="748.4089,-296.4501 755.4089,-294 748.4089,-291.5501 748.4089,-296.4501"/>
</g>
<!-- RESP -->
<g id="node18" class="node">
<title>RESP</title>
<path fill="#ffffff" stroke="#404040" d="M998.693,-281C998.693,-281 911.669,-281 911.669,-281 905.669,-281 899.669,-275 899.669,-269 899.669,-269 899.669,-257 899.669,-257 899.669,-251 905.669,-245 911.669,-245 911.669,-245 998.693,-245 998.693,-245 1004.693,-245 1010.693,-251 1010.693,-257 1010.693,-257 1010.693,-269 1010.693,-269 1010.693,-275 1004.693,-281 998.693,-281"/>
<text text-anchor="middle" x="955.181" y="-266" font-family="Helvetica,sans-Serif" font-size="10.00" fill="#000000">Responses to ENV</text>
<text text-anchor="middle" x="955.181" y="-254" font-family="Helvetica,sans-Serif" font-size="10.00" fill="#000000">(effect sizes, ranking)</text>
</g>
<!-- ALPH&#45;&gt;RESP -->
<g id="edge40" class="edge">
<title>ALPH&#45;&gt;RESP</title>
<path fill="none" stroke="#595959" d="M837.2919,-286.0167C854.002,-282.7542 873.7147,-278.9055 892.1887,-275.2986"/>
<polygon fill="#595959" stroke="#595959" points="893.0695,-277.623 899.4702,-273.877 892.1304,-272.8138 893.0695,-277.623"/>
</g>
<!-- BETA&#45;&gt;RESP -->
<g id="edge41" class="edge">
<title>BETA&#45;&gt;RESP</title>
<path fill="none" stroke="#595959" d="M859.6122,-244.943C870.4662,-246.9938 881.7416,-249.1242 892.5796,-251.1719"/>
<polygon fill="#595959" stroke="#595959" points="892.2965,-253.6117 899.6297,-252.504 893.2063,-248.7969 892.2965,-253.6117"/>
</g>
</g>
</svg>

